<svg xmlns="http://www.w3.org/2000/svg" width="1280" height="720" viewBox="0 0 1280 720">
  <defs>
    <linearGradient id="bg" x1="0" y1="0" x2="1" y2="1">
      <stop offset="0" stop-color="#04152d"/>
      <stop offset="0.6" stop-color="#03142a"/>
      <stop offset="1" stop-color="#041029"/>
    </linearGradient>
    <linearGradient id="card" x1="0" y1="0" x2="1" y2="1">
      <stop offset="0" stop-color="#0b274f"/>
      <stop offset="1" stop-color="#092038"/>
    </linearGradient>
    <linearGradient id="highlight" x1="0" y1="0" x2="1" y2="0">
      <stop offset="0" stop-color="#00b5ff" stop-opacity="0.2"/>
      <stop offset="1" stop-color="#00b5ff" stop-opacity="0.6"/>
    </linearGradient>
    <style>
      text { font-family: 'Segoe UI', 'PingFang SC', sans-serif; fill: #e6f3ff; }
      .title { font-size: 32px; letter-spacing: 6px; text-transform: uppercase; }
      .panel-title { font-size: 20px; font-weight: 600; letter-spacing: 2px; text-transform: uppercase; }
      .small { font-size: 14px; fill: #6f9ac3; }
      .count { font-size: 36px; font-weight: 600; fill: #00c6ff; text-anchor: end; }
    </style>
  </defs>
  <rect width="1280" height="720" fill="url(#bg)"/>
  <text x="80" y="90" class="title">POLICY MONITOR</text>
  <!-- left panel -->
  <g transform="translate(60,140)">
    <rect width="300" height="440" rx="26" fill="url(#card)" stroke="#144a77" stroke-opacity="0.3" stroke-width="2"/>
    <text x="24" y="48" class="panel-title">站点覆盖</text>
    <text x="264" y="48" text-anchor="end" class="small">更新：2024-11-30 12:30:12</text>
    <g transform="translate(24,80)">
      <rect width="252" height="78" rx="16" fill="#0d1f3c" stroke="#123c66"/>
      <text x="12" y="28" font-size="18" font-weight="600">国家发展改革委</text>
      <text x="12" y="54" class="small">https://www.ndrc.gov.cn</text>
      <text x="240" y="48" class="count">128</text>
      <rect x="12" y="60" width="228" height="8" rx="4" fill="#0a1a33"/>
      <rect x="12" y="60" width="216" height="8" rx="4" fill="url(#highlight)"/>
    </g>
    <g transform="translate(24,170)">
      <rect width="252" height="78" rx="16" fill="#0d1f3c" stroke="#123c66"/>
      <text x="12" y="28" font-size="18" font-weight="600">工业和信息化部</text>
      <text x="12" y="54" class="small">https://www.miit.gov.cn</text>
      <text x="240" y="48" class="count">96</text>
      <rect x="12" y="60" width="228" height="8" rx="4" fill="#0a1a33"/>
      <rect x="12" y="60" width="180" height="8" rx="4" fill="url(#highlight)"/>
    </g>
    <g transform="translate(24,260)">
      <rect width="252" height="78" rx="16" fill="#0d1f3c" stroke="#123c66"/>
      <text x="12" y="28" font-size="18" font-weight="600">深圳发改委</text>
      <text x="12" y="54" class="small">https://fzgg.sz.gov.cn</text>
      <text x="240" y="48" class="count">54</text>
      <rect x="12" y="60" width="228" height="8" rx="4" fill="#0a1a33"/>
      <rect x="12" y="60" width="120" height="8" rx="4" fill="url(#highlight)"/>
    </g>
    <g transform="translate(24,356)">
      <text x="0" y="0" class="panel-title">高频关键词</text>
      <rect y="16" width="252" height="72" rx="16" fill="#0d1f3c" stroke="#123c66"/>
      <text x="20" y="46" font-size="16">智能制造</text>
      <text x="232" y="46" text-anchor="end" font-size="20" fill="#00c6ff">42</text>
      <text x="20" y="74" font-size="16">专精特新</text>
      <text x="232" y="74" text-anchor="end" font-size="20" fill="#00c6ff">35</text>
    </g>
  </g>
  <!-- center heatmap -->
  <g transform="translate(400,140)">
    <rect width="520" height="440" rx="26" fill="#0d1f3c" stroke="#123c66" stroke-opacity="0.4"/>
    <text x="32" y="48" class="panel-title">监测热点分布</text>
    <text x="480" y="48" text-anchor="end" class="small">更新：2024-11-30 12:30</text>
    <g transform="translate(32,80)">
      <rect width="260" height="200" rx="22" fill="#0f3b63" stroke="#1b6ca3" stroke-opacity="0.6"/>
      <text x="24" y="52" font-size="22">国家发展改革委</text>
      <text x="24" y="90" class="small">128 次访问</text>
    </g>
    <g transform="translate(312,80)">
      <rect width="176" height="120" rx="22" fill="#123257" stroke="#1b6ca3" stroke-opacity="0.4"/>
      <text x="24" y="52" font-size="20">工业和信息化部</text>
      <text x="24" y="86" class="small">96 次访问</text>
    </g>
    <g transform="translate(312,220)">
      <rect width="176" height="120" rx="22" fill="#1a3052" stroke="#1b6ca3" stroke-opacity="0.2"/>
      <text x="24" y="52" font-size="20">地方发改委</text>
      <text x="24" y="86" class="small">54 次访问</text>
    </g>
    <g transform="translate(32,300)">
      <rect width="180" height="100" rx="22" fill="#1c2f4a" stroke="#1b6ca3" stroke-opacity="0.2"/>
      <text x="24" y="44" font-size="20">工信厅</text>
      <text x="24" y="78" class="small">38 次访问</text>
    </g>
  </g>
  <!-- right column -->
  <g transform="translate(960,140)">
    <rect width="260" height="210" rx="26" fill="url(#card)" stroke="#144a77" stroke-opacity="0.3"/>
    <text x="24" y="48" class="panel-title">执行中的任务</text>
    <g transform="translate(24,76)">
      <text font-size="18" font-weight="600">制造业扶持政策</text>
      <text y="28" class="small">工业和信息化部 · 启动于 12:28</text>
    </g>
    <g transform="translate(24,132)">
      <text font-size="18" font-weight="600">专精特新快讯</text>
      <text y="28" class="small">国家发展改革委 · 启动于 12:25</text>
    </g>
  </g>
  <g transform="translate(960,374)">
    <rect width="260" height="206" rx="26" fill="url(#card)" stroke="#144a77" stroke-opacity="0.3"/>
    <text x="24" y="48" class="panel-title">通知动态</text>
    <g transform="translate(24,78)">
      <text font-size="18" font-weight="600" fill="#00c6ff">专精特新快讯</text>
      <text y="26" class="small">检测到「关于推动产业数字化发展的指导意见」</text>
      <text y="52" class="small">12:26 · 已送达</text>
    </g>
    <g transform="translate(24,134)">
      <text font-size="18" font-weight="600" fill="#00c6ff">制造业扶持政策</text>
      <text y="26" class="small">任务失败，将在 5 分钟后重试</text>
      <text y="52" class="small">12:28 · 重试中</text>
    </g>
  </g>
  <g transform="translate(400,600)">
    <rect width="520" height="120" rx="22" fill="url(#card)" stroke="#144a77" stroke-opacity="0.3"/>
    <text x="32" y="46" class="panel-title">实时日志</text>
    <text x="32" y="88" class="small">12:30:12 任务「专精特新快讯」抓取成功 · 12:29:48 代理节点更新完成 · 12:28:03 抓取失败自动重试</text>
  </g>
  <text x="60" y="660" class="small">政策监控驾驶舱 · 示意界面</text>
  <text x="1220" y="660" text-anchor="end" class="small">12:30:18</text>
</svg>
