<svg xmlns="http://www.w3.org/2000/svg" width="1280" height="720" viewBox="0 0 1280 720">
  <defs>
    <linearGradient id="space" x1="0" y1="0" x2="1" y2="1">
      <stop offset="0" stop-color="#0f172a"/>
      <stop offset="1" stop-color="#111c34"/>
    </linearGradient>
    <style>
      text { font-family: 'Segoe UI', 'PingFang SC', sans-serif; fill: #e2e8f0; }
      .muted { fill: #94a3b8; }
      .title { font-size: 30px; font-weight: 600; }
      .card { fill: rgba(30,41,59,0.85); stroke: rgba(148,163,184,0.3); }
    </style>
  </defs>
  <rect width="1280" height="720" fill="url(#space)"/>
  <rect y="0" width="1280" height="140" fill="rgba(14,38,74,0.9)"/>
  <text x="80" y="88" class="title">监控结果归档</text>
  <text x="80" y="118" class="muted" font-size="18">智能抓取最新政策资讯，并按任务、站点和关注内容归档显示</text>
  <g transform="translate(80,180)">
    <rect width="320" height="440" rx="26" fill="rgba(15,23,42,0.85)" stroke="rgba(148,163,184,0.3)"/>
    <text x="24" y="48" font-size="18" letter-spacing="2" class="muted">筛选条件</text>
    <text x="24" y="96" class="muted" font-size="12">监测任务</text>
    <rect x="24" y="108" width="272" height="40" rx="12" fill="rgba(15,23,42,0.6)" stroke="rgba(148,163,184,0.3)"/>
    <text x="40" y="134">专精特新政策速递</text>
    <text x="24" y="184" class="muted" font-size="12">关联网站</text>
    <rect x="24" y="196" width="272" height="40" rx="12" fill="rgba(15,23,42,0.6)" stroke="rgba(148,163,184,0.3)"/>
    <text x="40" y="222">国家发展改革委</text>
    <text x="24" y="272" class="muted" font-size="12">关注关键词</text>
    <rect x="24" y="284" width="272" height="40" rx="12" fill="rgba(15,23,42,0.6)" stroke="rgba(148,163,184,0.3)"/>
    <text x="40" y="310">数字化转型</text>
    <text x="24" y="360" class="muted" font-size="12">时间范围</text>
    <rect x="24" y="372" width="272" height="40" rx="12" fill="rgba(15,23,42,0.6)" stroke="rgba(148,163,184,0.3)"/>
    <text x="40" y="398">2024-11-01 ~ 2024-11-30</text>
    <rect x="24" y="440" width="272" height="44" rx="14" fill="url(#space)" stroke="#38bdf8" stroke-opacity="0.7"/>
    <text x="136" y="470" text-anchor="middle" font-size="14">立即筛选</text>
  </g>
  <g transform="translate(440,180)">
    <rect width="760" height="440" rx="26" fill="rgba(15,23,42,0.75)" stroke="rgba(148,163,184,0.3)"/>
    <g transform="translate(32,40)">
      <rect width="696" height="164" rx="20" class="card"/>
      <text x="24" y="36" fill="#cbd5f5">专精特新政策速递 · 国家发展改革委</text>
      <text x="24" y="74" font-size="20" font-weight="600" fill="#38bdf8">关于推动产业数字化发展的指导意见</text>
      <text x="24" y="108" class="muted">提出到 2027 年建成覆盖重点产业的智能化政策服务体系，明确对符合条件的专精特新企业给予资金支持与税收优惠。</text>
      <text x="520" y="74" font-size="14" fill="#34d399">语义匹配度 0.87</text>
      <text x="520" y="102" class="muted">2024-11-30 12:18</text>
      <text x="520" y="132" class="muted">来源：国家发展改革委</text>
    </g>
    <g transform="translate(32,220)">
      <rect width="696" height="164" rx="20" class="card"/>
      <text x="24" y="36" fill="#cbd5f5">制造业扶持政策 · 工业和信息化部</text>
      <text x="24" y="74" font-size="20" font-weight="600" fill="#38bdf8">关于征集2025年度智能制造示范工厂的通知</text>
      <text x="24" y="108" class="muted">面向高端装备、电子信息等重点行业征集智能制造示范工厂项目，要求同步提交项目实施方案与技术改造预算。</text>
      <text x="520" y="74" font-size="14" fill="#34d399">语义匹配度 0.81</text>
      <text x="520" y="102" class="muted">2024-11-29 18:42</text>
      <text x="520" y="132" class="muted">来源：工业和信息化部</text>
    </g>
  </g>
</svg>
